<svg xmlns="http://www.w3.org/2000/svg" viewBox="0 0 110.77 68.65"><defs><style>.cls-1{fill:none;stroke:#c64027;stroke-miterlimit:10;}</style></defs><title>Asset 1</title><g id="Layer_2" data-name="Layer 2"><g id="Layer_2-2" data-name="Layer 2"><path class="cls-1" d="M34.59,4.8H40.3c.82-2.16,3.72-1.74,3.84.08H69.42c.3-2.13,3.21-2,3.77,0l7.39-.08"/><path class="cls-1" d="M97.85,8.74H87.52A4.42,4.42,0,0,1,85,7.92L80.58,4.8h0L84.7,1.68A5.78,5.78,0,0,1,88.21.5h9.64Z"/><path class="cls-1" d="M17.32.68H27.65a4.41,4.41,0,0,1,2.55.81l4.39,3.13h0L30.47,7.74A5.83,5.83,0,0,1,27,8.91H17.32Z"/><line class="cls-1" x1="14.7" y1="47.64" x2="49.28" y2="36.09"/><path class="cls-1" d="M.63,48.75l7.77-2.6a3.49,3.49,0,0,1,2.12,0l4.09,1.25h0l-2.32,3.38A4.59,4.59,0,0,1,10,52.52L2.7,54.94Z"/><line class="cls-1" x1="96.13" y1="34.31" x2="67.19" y2="41.8"/><path class="cls-1" d="M110.16,33.79l-7.91,2.12a3.49,3.49,0,0,1-2.12-.1l-4-1.5h0l2.51-3.23a4.65,4.65,0,0,1,2.45-1.62l7.38-2Z"/><path class="cls-1" d="M51.63,14.65c0,3.27,2.2,5.91,4.92,5.91s4.93-2.64,4.93-5.91a7,7,0,0,0-.09-1.13H51.72A7,7,0,0,0,51.63,14.65Z"/><path class="cls-1" d="M56.6,7.14h0a6.38,6.38,0,0,0-6.38,6.38H62.89v-.1A6.28,6.28,0,0,0,56.6,7.14Z"/><path class="cls-1" d="M28.69,26.13a6.81,6.81,0,0,0,0,1c.23,2.89,2.37,5.08,4.78,4.89s4.18-2.7,4-5.59a7.86,7.86,0,0,0-.16-1Z"/><path class="cls-1" d="M38.58,25.25a5.59,5.59,0,0,0-6-5.12,5.67,5.67,0,0,0-5.21,6.11l1.33-.11,8.57-.68,1.33-.11Z"/><path class="cls-1" d="M78.88,20.15a5.69,5.69,0,0,0-6.26,5l1.33.15,8.54.92,1.33.15v-.09A5.6,5.6,0,0,0,78.88,20.15Z"/><path class="cls-1" d="M49,26.82c-2.16-2.17-8.12-8-9.58-9.45a1.05,1.05,0,0,1-.31-.79c.09-1.78.45-8.3,1-11.08.54-2.93,4.09-2.53,4,0-.06,2.07-.64,7.24-.85,9.06a1,1,0,0,0,.48,1l6.46,4,.05,0s1,0,1,.75v5.93c-.32,1.29-1.39,1.85-1.67,1.4l-.4-.66A.9.9,0,0,0,49,26.82Z"/><path class="cls-1" d="M64.44,26.82c2.17-2.17,8.12-8,9.59-9.45a1,1,0,0,0,.3-.79c-.09-1.78-.45-8.3-1-11.08-.54-2.93-4.08-2.53-4,0,0,2.07.63,7.24.84,9.06a1,1,0,0,1-.48,1l-6.46,4,0,0s-1,0-1,.75v5.93c.32,1.29,1.39,1.85,1.67,1.4L64.3,27A.62.62,0,0,1,64.44,26.82Z"/><path class="cls-1" d="M39.08,38c-.42-1,0-6.67,0-6.67H37.19l-1.75.48-1.35,0-1.34,0L31,31.35H29.1s.42,5.68,0,6.67a4,4,0,0,1-1.26,1.55l.64,8.67,5.92-2.33,5.6-1.7.35-4.64A4,4,0,0,1,39.08,38Z"/><path class="cls-1" d="M82.3,36c-.42-1-.08-5.37-.08-5.37H80.94A4.07,4.07,0,0,1,77.55,32a4.23,4.23,0,0,1-3.35-2.66H72.32s.42,5.68,0,6.67a3.93,3.93,0,0,1-1.27,1.55L71.38,42l4.42.74A18.73,18.73,0,0,1,80.26,44L83,45.22l.57-7.65A3.93,3.93,0,0,1,82.3,36Z"/><path class="cls-1" d="M74,25.33a6.19,6.19,0,0,0-.19,1,6,6,0,0,0,.44,3A4.23,4.23,0,0,0,77.55,32a4.07,4.07,0,0,0,3.39-1.36,5.86,5.86,0,0,0,1.53-3.39,6.84,6.84,0,0,0,0-1Z"/><path class="cls-1" d="M29.15,32.08a3.61,3.61,0,0,0-2.3,0c-1,.45-7.74,5-7.74,5.52s.14,7.6,0,9.43,3.52,2,3.66,0-.14-7.32,0-7.6.84-1.94,3.55-1a2.81,2.81,0,0,1,1.52,1.09c.15.21-.16-.07.17-.22a2.33,2.33,0,0,0,1.29-2.5Z"/><path class="cls-1" d="M61.31,35.37A11.16,11.16,0,0,1,64,33.13v-5a3.45,3.45,0,0,1-2-1.4c-.7-1.13,0-7.2,0-7.2H60a.59.59,0,0,0-.59.65,9.78,9.78,0,0,1-.27,3.59,4.55,4.55,0,0,1-2.54,2.25V42L64,41.86v0l-2.72.06C61.44,40,61.31,35.94,61.31,35.37Z"/><path class="cls-1" d="M72.36,29.65a8.84,8.84,0,0,0-3.31.21,56.44,56.44,0,0,0-5,3.27,11.16,11.16,0,0,0-2.71,2.24c0,.57.13,4.67,0,6.5L64,41.81l1,0c0-.73-.18-4.41-.09-4.59.18-.36.84-1.93,3.55-.94a3.7,3.7,0,0,1,1.62,1.42c.15.21.44.18.77,0a2.64,2.64,0,0,0,1.5-2.46Z"/><path class="cls-1" d="M47.4,32.53c-1-.28-3.94-1.13-5.35-1.56a5,5,0,0,0-3.07.38v6.33a1.48,1.48,0,0,0,.47,1l.9.87,5.13-2.11a23.6,23.6,0,0,0,3.61-.26V32.72A15.72,15.72,0,0,1,47.4,32.53Z"/><path class="cls-1" d="M54,23.8a10.06,10.06,0,0,1-.26-3.71.49.49,0,0,0-.49-.53H51.06s.71,6.07,0,7.2a3.41,3.41,0,0,1-2,1.4V42.38L56.55,42V26.05A4.54,4.54,0,0,1,54,23.8Z"/><path class="cls-1" d="M39.82,37.17c.29-1,1.42-1.7,3.36-1.7s4.06,1.41,3.12,1.79A41.63,41.63,0,0,1,41,39C39.09,39.5,39.54,38.14,39.82,37.17Z"/><path class="cls-1" d="M82.16,31.88a5.45,5.45,0,0,1,3.25.79c1.55,1,2.82,2,2.82,2s1.41-1.52,3.94-3.86,4.7.07,3.24,1.93-2.82,4.35-4.08,5.47-2.11.9-4,.58a19.52,19.52,0,0,1-3.81-1.19h0c-1.38-1-1.66-1.68-1.48-3.9Z"/><path class="cls-1" d="M3.9,58.29c2.4,3.66,8.12,7,13.42,1,4.74,6.33,10.37,4.92,13.75-1,3.52,6.48,11.27,5.35,13.52,0,2.11,5.63,10.51,7.32,13,0,2.06,6.06,9.8,8,13.46,0,2.78,6.62,10.82,5.77,12.52,0a6.94,6.94,0,0,0,13.53,0c2.67,7.18,11.65,5.49,12.93,0"/><path class="cls-1" d="M18.12,58.29v9.86H78.66S82.3,66,83.57,58.29c1-6-4.12-8.57-7.6-9.29s-15.33-.56-24.34.7S18.12,58.29,18.12,58.29Z"/><path class="cls-1" d="M82.69,61.91C88,58.85,93.58,54.1,87.24,48.46s-10.55-6.59-24.35-6.6H61.3c-20.18.19-27.45,4.2-36.63,8-4.62,1.9-6.27,2.82-6.55,4.23a19.93,19.93,0,0,0,0,4.22"/></g></g></svg>